<?xml version="1.0" encoding="UTF-8"?>
<svg fill="none" viewBox="0 0 90 100"
  xmlns="http://www.w3.org/2000/svg">
  <path d="m0 100h64.167c-0.2778-1.9444-1.1111-12.222-1.6667-13.056-1.3889-1.9445-9.1667-5.5556-12.222-7.5001-2.7778-1.6666-7.2222-5.8333-10-8.3333-0.2778-0.2778-0.5556-0.5555-0.8334-0.8333 0-0.8334-0.2777-3.0556 0.2778-3.8889 0.5556-0.8333 0.8334-0.8333 1.3889-2.2222 1.1111-2.2223 2.5-5 3.3333-6.6667 0.8334-1.6667 1.1112-1.6667 1.6667-4.1667 0.2778-0.8333 0.5556-2.2222 0.8334-3.3333 0-1.1111-0.8334-2.2222-1.3889-2.5 0-7.5 0.5555-11.944-3.0556-16.944-4.7222-6.1112-20-7.5-23.333 5.2777-0.8334 3.6111-0.5556 7.5-0.5556 10.833 0 1.6666-0.8333 0.8333-1.1111 2.5-0.5556 1.3889 1.1111 6.3889 1.9444 7.7777 1.1112 1.9445 2.5 5.8334 4.4445 8.8889 0.2778 0.2778 0.5555 0.8334 0.5555 0.8334 0.2778 0.5555 0.2778 1.6666 0.2778 2.2222 0 1.3889 0 1.3889-0.8333 1.9444-0.8333 0.8334-1.3889 1.6667-2.5 2.2223-0.8333 0.8333-1.3889 1.6666-2.5 2.5-7.5 6.1111-7.5 4.7222-14.167 9.1666-1.6667 0.8334-3.3333 1.6667-3.6111 3.6111l-1.1111 11.667zm70.278-11.944h12.222v-5.2778l-12.222-1.3889v6.6667zm0-23.056h12.222v-5.5556l-11.944-1.1111-0.2778 6.6667zm0.5555 11.667h11.944v-5.2778l-11.944-1.1111v6.3889zm0-24.167 11.944 1.6667v-5l-11.944-3.8889c0 1.3889-0.2777 6.3889 0 7.2222zm-0.8333 46.389h12.222v-6.1111h-12.222v6.1111zm0.8333-65.556v6.3889l12.222 4.4445v-5.5556c-4.1667-1.3889-8.3334-3.3333-12.222-5.2778zm-28.333 35.278c0.2778 0.5556 1.3889 1.3889 1.9444 1.9445 1.3889 1.3888 5.5556 5 7.2223 5.5555v-71.389c6.3889 3.6111 13.056 6.9445 19.167 10.833v7.7777l-4.7222-2.5c-3.3333 4.4445-7.2222 9.1667-10.278 14.167-1.1111 1.3889-0.8333 39.722-0.5555 43.333 2.7778 1.3889 9.4444 4.7223 10.556 8.0556 0 0.8333 0 1.9444 0.2778 2.5v-63.333c0.5556 0.2777 18.889 10.278 19.444 10.556l0.2777 61.111 3.8889 1.9445-0.8333-65.556c-1.9444-1.6667-11.111-6.3889-14.167-8.0555v-12.778c-1.6666-1.6667-21.389-12.222-23.056-12.778-3.3334 4.4444-6.6667 9.1667-10 13.611-1.3889 1.6667-0.8334 1.9445-0.8334 5 0 8.6111-0.8333 4.7222 3.0556 8.8889 3.3333 3.3333 4.4444 8.3333 4.4444 13.611v3.0556c0 1.6666 0 1.3889 0.5556 2.5 1.6667 2.5 0.5555 7.2222-0.5556 9.7222-0.5555 1.3889-4.4444 9.1667-5 10-0.2777 0.5555-0.8333 1.3889-0.8333 2.2222z" clip-rule="evenodd" fill="#243642" fill-rule="evenodd"/>
</svg>
