<?xml version="1.0" encoding="UTF-8"?>
<svg viewBox="0 0 77 100"
  xmlns="http://www.w3.org/2000/svg">
  <path d="m48.498 52c-0.5 0-1.25 0-1.75-0.25-0.5 0-1.25-0.25-1.75-0.5-1 0.25-5.75-2.5-7-3.25s-5.5-4-6-5.25c-0.5 0-0.75-0.75-1-1.25-0.5-0.25-0.75-0.75-1-1.25-0.5 0-0.5 0.25-0.75 0.5-8.75 14-18 27.75-26.75 41.5-1.25 2-3.5 4.75-2 8.5 1.25 3.25 4.25 4.25 6.25 5.75 0.5 0.5 1.25 0.75 1.75 1.25 0.5 0.25 1.25 0.75 1.75 1 1.25 0.75 2.5 1.25 4.25 1 4.25-0.25 5.5-3.25 7-5.25 1.5-2.5 3-4.75 4.5-7.25 1.5-2.25 3-4.5 4.5-7l16-24.75c0.25-0.5 0.75-1 1-1.75 0.5-0.5 1-1.25 1-1.75zm-37.25 32.5c2 0 3.5 1.5 3.5 3.5 0 1.75-1.5 3.25-3.5 3.25-1.75 0-3.25-1.5-3.25-3.25 0-2 1.5-3.5 3.25-3.5z" clip-rule="evenodd" fill-rule="evenodd"/>
  <path d="m33.248 9.25-1 1.25c-0.75 1-1.25 2-1.75 3-0.5 1.25-1 2.25-1.25 3.25-0.5 1-0.75 2.25-1 3.25-0.25 0.75-0.25 1.25-0.25 1.75-0.25 0.5-0.25 1.5-0.25 1.75v1.5c-0.25 7.5 4.75 16.75 11.75 20.75 0.5 0.25 1.25 0.75 1.75 1 2.5 1 7.75 2.75 10.25 2.5 0 0.25 0.25 0.25 0.75 0.25 2 0 3.25-0.25 5.25-0.75 5-1 9-3.25 12.5-7 2.25-2.25 2.75-3.5 3.75-4.75 0-0.25 0.75-1.75 1-2.25 1-2.25 1-2 1.5-4.5l0.5-2.25c0-0.75 0.25-1.5 0.25-2 0-0.75-0.25-1.5 0-2 0-0.25-0.25-2.75-0.25-3.25-0.5-1.25-0.5-2.25-1-3.5-0.25-0.75-0.25-1.25-0.75-1.75s-1-0.5-1.5-0.75c-0.25 0.25-0.5 0.25-0.75 0.5l-0.5 0.5c0 0.25 0 0-0.25 0.25l-2 2.75c0 0.25-2.75 4.5-3 4.5 0 0.75-0.5 1.25-1 1.75-0.25 0.5-0.5 1.25-1 1.5 0 0.25-1.25 2.25-1.5 2.5 0 0.25-0.5 1-0.75 1h-1.25-0.5c-0.25 0-3.25-0.25-3.5-0.25h-1.75c-0.75 0-1.5 0-2-0.25-0.25 0.25-2.75 0-3-0.25l-5.5-11c0.75-0.5 4.5-6.5 5-7 0-0.5 1.75-2.5 2-3 0-0.25 2-3 2.25-3.25 0.25-1 2.25-2.25 1.25-3.75-0.75-1.5-3-1-3.75-1.25-0.5 0.25-1.25 0.25-1.75 0.25s-1.25 0.25-1.75 0.25l-1.75 0.25s-3 1-4 1.5c-3.5 1.5-7.25 4-9.5 7z" clip-rule="evenodd" fill-rule="evenodd"/>
</svg>
