<?xml version="1.0" encoding="UTF-8"?>
<svg fill="none" viewBox="0 0 85 100"
  xmlns="http://www.w3.org/2000/svg">
  <path d="m18.51 0h49.198v99.857h-67.708v-79.398l18.51-20.458zm60.888 87.192-5.3582-11.934v-46.519l2.192-10.473c0-0.2436 0.2435-0.2436 0.4871-0.2436h6.0888c0.2436 0 0.2436 0 0.4871 0.2436l1.7049 10.473v46.519l-4.384 11.69c0 0.2436-0.2435 0.4871-0.7306 0.4871-0.2436 0-0.4871 0-0.4871-0.2435zm0.4871-2.6791 1.4613-4.384 1.4613-4.1404h-6.0888l1.4613 4.1404 1.7049 4.384zm-3.6533-54.556h6.8195v44.083h-6.8195v-44.083zm1.9484-9.0114h3.6533l1.2178 6.3323h-6.3324l1.4613-6.3323zm-65.516 15.1h43.352c0.7306 0 1.4613 0.4872 1.4613 1.2178v0.2436c0 0.7306-0.7307 1.4613-1.4613 1.4613h-43.352c-0.7307 0-1.4614-0.7307-1.4614-1.4613v-0.2436c0-0.7306 0.7307-1.2178 1.4614-1.2178zm-0.4871 7.7937h43.596c0.7307 0 1.2178 0.4871 1.2178 1.2178v0.2436c0 0.7306-0.4871 1.4613-1.2178 1.4613h-43.596c-0.7307 0-1.2178-0.7307-1.2178-1.4613v-0.2436c0-0.7307 0.4871-1.2178 1.2178-1.2178zm0-15.831h43.352c0.7306 0 1.2177 0.4871 1.2177 1.2178v0.2435c0 0.7307-0.4871 1.4613-1.2177 1.4613h-43.352c-0.7307 0-1.4614-0.7306-1.4614-1.4613v-0.2435c0-0.7307 0.7307-1.2178 1.4614-1.2178zm24.112-15.344h19.241c0.7306 0 1.4613 0.4871 1.4613 1.2177v0.2436c0 0.7306-0.7307 1.4613-1.4613 1.4613h-19.241c-0.7307 0-1.2178-0.7307-1.2178-1.4613v-0.2436c0-0.7306 0.4871-1.2177 1.2178-1.2177zm10.716 49.928h7.5502v26.06h-7.5502v-26.06zm-12.665 5.6017h7.7937v20.458h-7.7937v-20.458zm-12.421-8.2808h7.5501v28.739h-7.5501v-28.739zm-12.665 9.7422h7.7937v18.997h-7.7937v-18.997zm8.7679-65.759v15.587h-14.37l14.37-15.587zm1.7049-1.2178h45.544v94.499h-62.837v-75.502h17.292v-18.997z" clip-rule="evenodd" fill="#424E5A" fill-rule="evenodd"/>
</svg>
