<svg fill="none" viewBox="0 0 70 100"
  xmlns="http://www.w3.org/2000/svg">
  <path d="m3.1698 11.038h17.434v-0.2641c0-1.585 1.3207-2.9057 2.9056-2.9057h4.7548c0.2641-4.2264 3.1698-7.6604 6.6037-7.6604 3.6981 0 6.6038 3.434 6.8679 7.6604h5.8114c1.5849 0 2.9056 1.3208 2.9056 2.9057v0.2641h16.377c1.849 0 3.1698 1.3208 3.1698 2.9057v82.679c0 1.5849-1.3208 3.1698-3.1698 3.1698h-63.66c-1.8491 0-3.1698-1.5849-3.1698-3.1698v-82.679c0-1.5849 1.3208-2.9057 3.1698-2.9057zm28-3.1698h7.3962c0-2.3774-1.5849-4.2264-3.6981-4.2264-1.849 0-3.4339 1.8491-3.6981 4.2264zm19.283 4.7547v6.0755h14.528v64.453l-8.9811 8.9811h-49.66v-73.434h14.264v-6.0755h-16.377c-1.5849 0-2.9057 1.3208-2.9057 2.9057v79.509c0 1.5849 1.3208 2.9057 2.9057 2.9057h61.547c1.5849 0 2.9056-1.3208 2.9056-2.9057v-79.509c0-1.5849-1.3207-2.9057-2.9056-2.9057h-15.321zm-27.208 62.868h35.132v3.9623c-15.057 0-29.849 0.2642-44.906 0.2642v-9.7736h9.7736v5.5471zm-7.3962-2.9056h5.0188v4.4905h-5.0188v-4.4905zm6.3396-24.038h35.396v3.6982c-15.057 0-30.113 0.2641-44.906 0.2641v-9.7736h9.5095v5.8113zm-7.1321-2.9056h5.0189v4.2264h-5.0189v-4.2264zm7.6604 16.377h35.132v3.9623h-44.906v-9.5094h9.7736v5.5471zm-7.3962-2.9056h5.0188v4.2264h-5.0188v-4.2264zm7.9245-23.774h35.396v3.9623h-44.906v-9.5095h9.5095v5.5472zm-7.1321-2.9057h5.0189v4.2264h-5.0189v-4.2264zm-8.717-12.415h56.264l0.2641 62.076h-8.717v8.717h-47.811v-70.792z" clip-rule="evenodd" fill="#424F5B" fill-rule="evenodd"/>
</svg>
