<?xml version="1.0" encoding="UTF-8"?>
<svg fill="none" viewBox="0 0 85 100"
  xmlns="http://www.w3.org/2000/svg">
  <path d="m0.031977 5.6774v77.935c0 3.871 0.76744 3.0968 8.6977 3.0968l0.25582 6.1935 8.4418 0.5162 0.2558 5.9354c3.0698 1.0322 58.07 0.5162 63.954 0.5162 2.814 0 3.0698 0 3.0698-2.8387v-67.613c0-3.0968-3.8372-5.9355-6.907-8.7742-2.0465-2.3226-1.7907-1.8065-1.7907-5.9355 0-2.5807 0-5.4194-0.2558-7.742l-8.4418-0.51613c0-3.871 1.0232-6.4516-2.814-6.4516h-61.907c-3.0698 0-2.5581 2.8387-2.5581 5.6774zm24.814 56.516h17.395c0.5116 0 0.7674 0.258 0.7674 0.5161v2.5806c0 0.2581-0.2558 0.5162-0.7674 0.5162h-17.395c-0.5116 0-0.7674-0.2581-0.7674-0.5162v-2.5806c0-0.2581 0.2558-0.5161 0.7674-0.5161zm0 7.2258h14.326c0.5116 0 0.7675 0.258 0.7675 0.5161v2.5806c0 0.2581-0.2559 0.5162-0.7675 0.5162h-14.326c-0.5116 0-0.7674-0.2581-0.7674-0.5162v-2.5806c0-0.2581 0.2558-0.5161 0.7674-0.5161zm0 14.452h18.163c0.5116 0 0.7675 0.258 0.7675 0.7742v2.3225c0 0.5162-0.2559 0.7742-0.7675 0.7742h-18.163c-0.5116 0-0.7674-0.258-0.7674-0.7742v-2.3225c0-0.5162 0.2558-0.7742 0.7674-0.7742zm0-7.2258h16.628c0.5117 0 0.7675 0.258 0.7675 0.7742v2.3225c0 0.2581-0.2558 0.7742-0.7675 0.7742h-16.628c-0.5116 0-0.7674-0.5161-0.7674-0.7742v-2.3225c0-0.5162 0.2558-0.7742 0.7674-0.7742zm0-21.936h20.721c0.2558 0 0.5116 0.5161 0.5116 0.7742v2.3226c0 0.5161-0.2558 0.7741-0.5116 0.7741h-20.721c-0.5116 0-0.7674-0.258-0.7674-0.7741v-2.3226c0-0.2581 0.2558-0.7742 0.7674-0.7742zm51.674 14.71c1.5348 0 2.0465 0 2.3023-1.5484 0-0.7742-0.5117-2.5807-1.0233-3.0968-2.8139-1.8065-2.8139 2.5806-1.279 4.6452zm0 4.129c-2.3024 1.0322-1.0233 4.9032-5.3721 8.5161-13.558 10.839-22.768-5.1613-23.279-5.4193-6.3954-1.5484 3.8372 16.516 19.442 11.355 10.488-3.3548 13.814-16.774 9.2093-14.452zm-31.721 0.5161c4.6047 0.2581 0.5116-2.8387 4.093-9.8064 3.0698-6.1936 11-9.5484 17.907-6.7097 4.3489 1.5484 5.3721 5.1613 8.4419 4.3871 1.2791-4.6452-10.488-11.613-20.465-7.2258-8.9535 3.6129-12.791 15.226-9.9768 19.355zm15.605-1.5484v5.4194c-2.814-0.7742-1.5349-2.3226-3.5814-2.3226-2.5582 0-0.5116-0.2581-1.2791 0.7742-1.0232 1.5484 0.7674 3.0968 2.0465 3.6129l1.7907 1.0323c1.0233 0.7742 1.5349 4.129 3.8372 1.0322 1.2791-1.8064-1.0232 0 1.5349-1.8064 1.5349-1.0323 2.5582-0.7742 3.3256-3.0968 1.7907-4.3871-1.5349-6.4516-4.6047-7.4839v-5.6774c2.5582 1.0323 1.5349 2.5806 4.3489 1.8065 1.5349-4.1291-2.3023-3.3549-3.8372-5.4194-0.5117-0.5161-0.5117-2.5806-2.5582-1.8065-2.3023 1.0323 0 1.0323-2.3023 2.8388-2.0465 1.5483-4.093 1.8064-3.5814 5.9354 0.5116 4.1291 3.5814 2.5807 4.8605 5.1613zm-35.302-46.71v19.355c0 3.871 1.5349 2.5806 11.768 2.5806h36.07c1.7907 0 3.0697 0 3.0697-1.5484 0-1.5483-1.279-1.2903-2.3023-2.0645 0-2.3225 0.7674-5.1613-1.5349-5.1613-2.3023 0.2581-1.5349 3.6129-1.7907 5.6775h-4.093c-0.2558-2.5807 0.5116-5.6775-1.7907-5.6775-2.0465 0.2581-1.5349 3.6129-1.5349 5.6775l-4.3488-0.2581c-0.2558-9.2903 1.5349-13.677-2.5582-13.419-1.5348 2.8388-0.5116 9.8065-0.7674 13.678h-4.093c-0.2558-4.1291 1.279-7.742-3.0698-7.2258l-0.2558 6.9677-4.3488 0.2581c-0.2559-4.3871 0.5116-15.742-0.5117-18.839h-2.3023c-1.2791 2.8387-0.2558 14.452-0.5116 18.839h-4.3489c0-4.1291 0.7675-10.581-0.2558-13.936-3.5814-0.7742-3.0698 2.0645-2.8139 5.4193 0 2.5807 0 5.6775-0.2558 8.2581l-4.0931 0.2581-0.2558-20.645c-1.0232-2.3226-3.0698-1.8065-3.0698 1.8065zm45.023 2.0645h10.233c-2.814-3.3549-6.907-7.2258-10.233-10.323v10.323zm-66.767 55.484h5.1163c1.5349-4.3871-0.76744-69.677 0.51163-76.387 4.093-1.2903 46.814-0.25806 55-0.51613v-3.3548h-60.628v80.258zm8.6976 6.7097h5.3721v-38.71c0-1.5483-0.7674-36.645 0.7675-37.677 1.279-1.2903 40.93-0.5161 48.86-0.5161 3.3256 0 3.8372 0.5161 5.8838 2.0645l-0.2559-5.4194h-60.628v80.258zm8.6977 6.4516h60.628v-65.29h-10.488c-1.5348 0-2.8139 0-3.3255-0.7742-1.5349-2.3226-0.2559-10.323-0.7675-13.936l-46.046-0.258v80.258z" clip-rule="evenodd" fill="#000" fill-rule="evenodd"/>
</svg>
